<svg id="Layer_1" data-name="Layer 1" xmlns="http://www.w3.org/2000/svg" viewBox="0 0 1000 1000"><title>cowboy hat</title><path d="M418.09,286.19a5.92,5.92,0,0,1,4.33-3.64h0c1.34-.33,2.74-.48,4.12-.74a84.71,84.71,0,0,1,14.7-1.51c47.94-.41,94.79,7.18,140.81,20.19,21.25,6,39.79,16.61,54.23,33.75,5.12,6.08,3.77,11.89-.85,17.08-2.41,2.71-5.9,4.62-9.18,6.35-21.14,11.1-44.29,11.85-67.37,12.65-2.08.07-4.22-1.54-6.33-2.37l-.29-3,13.13-5.37c1.19-.52,2.42-1,3.58-1.56,2.91-1.44,7.58-2.76,8.76-6.1a4.89,4.89,0,0,0,.27-1.29c.17-2.39-1.46-4.46-3.22-6.14a36.06,36.06,0,0,0-7.12-4.68q-12.07-5.66-24.24-11.11c-10.29-4.62-20.63-9.12-31.08-13.35-28.51-11.54-58.34-17.89-88.88-21.26a6.38,6.38,0,0,1-4.6-2.58c-1-.88-2.08-1.82-3.14-2.55A36.24,36.24,0,0,0,418.09,286.19Z"/><path d="M58.83,599.33c19.05,8,39.16,9.35,59.42,8.85,24.79-.61,49.57-2.8,74.33-2.46,63.4.87,124.57,14.85,184.74,33.79,69.13,21.76,135.25,51,201.36,80.38,58.7,26.07,117.54,51.9,176.88,76.45,28.5,11.79,58.7,18.45,89.6,21.83a85.15,85.15,0,0,0,38.11-4.06c9.17-2.57,18-7.06,25.59-11.39a161,161,0,0,0,26.06-18.44c2.66-2.33,5.21-4.77,7.68-7.3,10-8.13,18.31-18,22.29-30.55,1.77-5.6,3.32-11.2,4.73-16.82.23-.88.47-1.74.69-2.64.56-2.32,1-4.67,1.47-7,.4-1.88.83-3.75,1.18-5.63.31-1.68.52-3.37.79-5.06a209.39,209.39,0,0,0,2.82-34.8c0-.21,0-.41,0-.62,0-3.93-.2-7.86-.48-11.79-.06-.92-.14-1.83-.21-2.74-.29-3.42-.65-6.85-1.14-10.28-.26-1.89-.61-3.78-.94-5.66-.46-2.62-.87-5.23-1.45-7.85-1-4.74-2.21-9.45-3.64-14.12a186.65,186.65,0,0,0-52.11-83.32q-6.52-6.08-13.13-12c-1.51-1.36-3-2.68-4.57-4-3-2.64-6-5.26-9-7.83-1.83-1.55-3.69-3.06-5.54-4.58q-4.24-3.49-8.56-6.88c-1.95-1.52-3.92-3-5.89-4.48q-4.38-3.29-8.88-6.42c-1.2-.84-2.35-1.75-3.56-2.57-1-.71-2.12-1.35-3.17-2q-2.54-1.67-5.11-3.28l-.87-.52a227.83,227.83,0,0,0-41.48-20.69l-2-.73c-6.56-2.76-13.19-5.44-19.87-8.14a10.36,10.36,0,0,0-3.23-.8c0-10.48-.06-21,0-31.45.11-29.16-3.81-57.63-15.45-84.39a119.31,119.31,0,0,0-8.63-16.33,103.76,103.76,0,0,0-40-36.83c-3.42-1.8-6.9-3.48-10.41-5.1-.83-.39-1.66-.78-2.5-1.15q-4.81-2.15-9.73-4c-1.11-.43-2.22-.83-3.33-1.23-3.08-1.12-6.18-2.18-9.31-3.13-.87-.26-1.75-.51-2.63-.76-3.14-.9-6.32-1.69-9.51-2.4-.83-.18-1.65-.38-2.48-.55-3-.62-6.06-1.17-9.12-1.6-.64-.09-1.28-.13-1.92-.21-.8-.1-1.61-.18-2.42-.27-3.84-.42-7.7-.74-11.57-.85l-.52,0c-4-.11-8.07,0-12.11.21-.75,0-1.49.07-2.24.12-.59,0-1.17,0-1.76.09-3.94.32-7.74.83-11.51,1.28-7.09.85-14.07,1.5-21.62.27q-1.4-.23-2.79-.51a17.32,17.32,0,0,0-2.36-.36c-51.78-24.59-107.4-34.67-165.13-29.84-21.36,1.79-41.66,8.78-60.77,18.73-14.48,7.54-23.12,20.4-31.07,34-16.68,28.43-24.74,60.1-34.15,91.22-5.19,17.79-8.54,36.14-14.35,53.72a30.26,30.26,0,0,0-1.23,5.23c-32.1-4.82-64.57-5.67-97.48-1.05C125.31,444,77.92,472.28,38.78,515,11.78,544.52,21.58,583.66,58.83,599.33ZM332.62,447.83q-18.06-5-36.28-8.48c1.83-5.62,2.32-11.76,4.09-17.45,11-35.46,21.7-71,33-106.36,13-40.64,42.91-57.55,83.89-61.42a337.75,337.75,0,0,1,61.54-.29A322.62,322.62,0,0,1,597.4,288.47c9,4.6,17.21,10.36,26,15.27A256.18,256.18,0,0,0,650,316.43a294,294,0,0,0,27.79,10c7.31,2.21,15.76,5.87,23.45,5.6a1.85,1.85,0,0,0,1.47-.59.69.69,0,0,0,.1-.36,1.35,1.35,0,0,0-.61-1c-6.45-5.47-14.93-9-22.1-13.55-8-5-15.82-10.2-23.89-15.06-17.81-10.71-35.81-21.14-54.26-30.73,2.22.3,4.46.5,6.67.63,5.5.32,12.58,0,18.43,1.64l26.4,16,.21.13.78.47c16,9.69,32,19.34,48.23,28.72a226.77,226.77,0,0,0,32.83,15.21c6.82,2.6,11,6.32,13.65,13.09,10.9,28.08,14.69,57.6,16.45,87.22,2.46,41.46,3.67,83,5.34,124.51q.27,16.85.07,33.67c-54.49,2-107.24-2.23-161.55-7.15,6,5.25,11.1,9.23,15.7,13.69,19.41,18.82,38.65,37.81,58,56.64,1.76,1.71,4.06,3.53,6.35,3.91,22.62,3.74,45.2,4.38,67.79-.78,11.1-2.53,18.6-8.93,22.8-19.11,6.37-15.44,2.88-31.55,3.89-47.71-1.14.06-2.26.08-3.4.14,0-.07,0-.14,0-.21.54-7.94.91-15.95,1.12-23.94.17-3.06.22-6.14.21-9.19q0-23.26-.09-46.52,0-11.77-.06-23.54,0-5.88,0-11.77c0-3.09-.58-6.82.46-9.73,12.82,4.77,25.62,11.83,37.53,18.54q7.86,4.43,15.56,9.14c1.48.9,2.92,1.85,4.39,2.77,3.64,2.28,7.27,4.59,10.85,7,1.81,1.21,3.58,2.46,5.36,3.69q4.91,3.39,9.71,6.93,2.6,1.92,5.16,3.89,4.9,3.75,9.65,7.69c1.54,1.27,3.08,2.52,4.59,3.82,3.37,2.88,6.65,5.86,9.89,8.87,1.24,1.16,2.52,2.27,3.75,3.45,4.4,4.23,8.7,8.58,12.83,13.08,3.11,3.39,6,6.86,8.84,10.35q1.2,1.48,2.37,3c2.51,3.22,4.93,6.48,7.2,9.78.57.83,1.12,1.68,1.68,2.52q3,4.51,5.7,9.1,1.16,2,2.26,3.95,2.45,4.4,4.64,8.87c.41.83.85,1.64,1.25,2.48,1.78,3.78,3.39,7.6,4.88,11.44.42,1.09.81,2.19,1.21,3.29,1.06,2.91,2,5.83,2.93,8.77.43,1.41.88,2.82,1.27,4.25.79,2.83,1.46,5.68,2.1,8.54.31,1.4.68,2.78,1,4.18.74,3.73,1.32,7.49,1.8,11.26.29,2.26.47,4.53.66,6.8.16,1.84.32,3.67.42,5.52.13,2.29.2,4.58.23,6.87,0,2,0,4.08,0,6.12s-.07,4.07-.18,6.1c-.23,4-.55,8-1.06,12-.09.73-.24,1.46-.34,2.19-.55,4-1.19,7.94-2,11.91l-.14.66a190.85,190.85,0,0,1-6.09,21.6,101.86,101.86,0,0,1-10.69,20.93c-8.78,13.15-21.6,23-35.4,30.49-41,14-77,.56-111.76-20.85-32.06-19.72-58.11-46.24-84.38-72.6-30.12-30.22-58.72-62.19-90.79-90.18C535.25,531.79,440.39,477.64,332.62,447.83Z"/></svg>